<?xml version="1.0" standalone="no"?>
<!DOCTYPE svg PUBLIC "-//W3C//DTD SVG 20010904//EN"
 "http://www.w3.org/TR/2001/REC-SVG-20010904/DTD/svg10.dtd">
<svg version="1.0" xmlns="http://www.w3.org/2000/svg"
 width="1024.000000pt" height="1024.000000pt" viewBox="0 0 1024.000000 1024.000000"
 preserveAspectRatio="xMidYMid meet">

<g transform="translate(0.000000,1024.000000) scale(0.100000,-0.100000)"
fill="#000000" stroke="none">
<path d="M3924 9056 l-34 -34 0 -561 c0 -309 -2 -561 -5 -561 -2 0 -53 27
-112 59 l-108 60 -3 -1020 -2 -1019 -290 0 c-308 0 -334 -3 -374 -49 -12 -13
-21 -41 -24 -75 -4 -50 -2 -56 31 -92 l35 -39 311 -3 311 -3 0 -1944 0 -1945
-154 0 c-390 0 -650 -81 -845 -265 -65 -61 -141 -158 -141 -180 0 -9 11 -27
25 -40 l24 -25 2458 0 c1957 0 2463 3 2483 13 33 17 36 46 9 99 -67 133 -204
275 -321 332 -104 52 -195 66 -415 66 l-185 0 7 27 c20 80 49 249 70 418 65
507 54 1031 -31 1545 -68 415 -195 864 -360 1281 -66 166 -228 513 -302 644
-50 90 -50 90 -29 105 12 8 89 62 172 119 229 158 474 343 480 362 8 24 -3 45
-31 58 -17 8 -173 11 -522 12 l-497 0 -85 122 c-147 212 -278 366 -489 577
-256 255 -506 454 -763 607 l-97 58 -1 618 c0 666 1 654 -52 691 -12 9 -42 16
-66 16 -37 0 -50 -6 -78 -34z m338 -1733 c531 -394 935 -900 1269 -1588 349
-719 545 -1492 589 -2325 17 -325 -11 -762 -76 -1185 -21 -134 -53 -311 -65
-357 l-10 -38 -124 0 c-93 0 -125 3 -125 13 0 6 11 68 24 137 44 226 88 564
102 783 l7 107 -872 0 -871 0 0 125 0 125 875 0 875 0 0 73 c0 166 -36 642
-56 755 l-6 32 -844 0 -844 0 0 120 0 120 825 0 c454 0 825 2 825 4 0 2 -11
59 -25 126 -35 174 -97 410 -152 583 l-46 147 -714 0 -713 0 0 125 0 125 666
0 665 0 -7 23 c-11 37 -113 266 -162 362 -64 130 -176 327 -238 423 l-54 82
-430 0 -430 0 0 600 c0 589 0 600 19 590 11 -5 66 -44 123 -87z"/>
</g>
</svg>
